<svg width="24" height="24" viewBox="0 0 24 24" fill="none" xmlns="http://www.w3.org/2000/svg">
<g clip-path="url(#clip0_2250_8451)">
<path d="M7.78379 11.5782L14.6373 11.5782M20.234 12.9923L7.94075 19.5004C6.83907 20.0837 6.28792 20.3754 5.92465 20.2915C5.60956 20.2188 5.3492 19.9989 5.22563 19.7001C5.08314 19.3555 5.28012 18.7632 5.67444 17.5802L7.50652 12.084C7.56909 11.8963 7.60009 11.8026 7.61251 11.7066C7.62354 11.6214 7.62409 11.5353 7.61306 11.45C7.60092 11.3562 7.57028 11.2643 7.51049 11.085L5.67418 5.57606C5.27986 4.3931 5.08285 3.8014 5.22534 3.45681C5.34891 3.15797 5.60922 2.93763 5.92431 2.86487C6.28764 2.78097 6.83895 3.07247 7.94099 3.6559L20.2342 10.1641C21.1006 10.6228 21.5338 10.8523 21.6755 11.1582C21.7988 11.4247 21.799 11.7319 21.6756 11.9984C21.534 12.3042 21.1009 12.5335 20.2354 12.9917L20.234 12.9923Z" stroke="#444D4A" stroke-width="2" stroke-linecap="round" stroke-linejoin="round"/>
</g>
<defs>
<clipPath id="clip0_2250_8451">
<rect width="24" height="24" fill="white"/>
</clipPath>
</defs>
</svg>
