<svg  viewBox="0 0 24 24" fill="none" xmlns="http://www.w3.org/2000/svg">
<path d="M11.6098 5.73231C11.7035 5.31617 12.2965 5.31618 12.3902 5.73231L12.5444 6.4169C13.1102 8.92847 15.0715 10.8898 17.5831 11.4556L18.2677 11.6098C18.6838 11.7035 18.6838 12.2965 18.2677 12.3902L17.5831 12.5444C15.0715 13.1102 13.1102 15.0715 12.5444 17.5831L12.3902 18.2677C12.2965 18.6838 11.7035 18.6838 11.6098 18.2677L11.4556 17.5831C10.8898 15.0715 8.92847 13.1102 6.4169 12.5444L5.73231 12.3902C5.31617 12.2965 5.31618 11.7035 5.73231 11.6098L6.4169 11.4556C8.92847 10.8898 10.8898 8.92847 11.4556 6.4169L11.6098 5.73231Z" stroke="currentColor" stroke-width="2"/>
</svg>
