<svg  viewBox="0 0 24 24" fill="none" xmlns="http://www.w3.org/2000/svg">
<path fill-rule="evenodd" clip-rule="evenodd" d="M13.6071 6.66667C13.6071 5.74619 14.3267 5 15.2143 5H19.3929C20.2805 5 21 5.74619 21 6.66667V18.3333C21 19.2538 20.2805 20 19.3929 20H4.60714C3.71954 20 3 19.2538 3 18.3333V14.6667C3 13.7462 3.71954 13 4.60714 13H8.14286V10.6667C8.14286 9.74619 8.8624 9 9.75 9H13.6071V6.66667ZM15.5357 7V10H17.4643V7H15.5357ZM10.0714 11H12V14H10.0714V11ZM4.92857 15H6.85714V18H4.92857V15Z" fill="currentColor"/>
</svg>
