<svg viewBox="0 0 204 61" fill="none" xmlns="http://www.w3.org/2000/svg">
<path d="M74.9658 13.4902C89.4548 13.4902 100.304 22.6979 100.304 36.9014C100.304 51.1762 89.4548 60.3838 74.9658 60.3838C60.4769 60.3838 49.628 51.2476 49.6279 36.9014C49.6279 22.6979 60.4768 13.4902 74.9658 13.4902ZM195.854 14.918H203.775V34.6885C200.207 34.6884 194.568 34.046 190.5 33.1182V35.1885C194.211 36.0449 200.207 36.6865 203.775 36.6865V58.3848C199.136 59.6694 194.854 59.8838 191.499 59.8838C180.151 59.8836 172.086 53.3884 172.086 42.8252V32.833H169.088V14.918H171.586V2.71289H195.854V14.918ZM125.229 0C128.583 0 135.507 0.928151 137.506 2.21289V16.4883C132.795 16.4883 128.298 15.8458 124.229 14.918V16.9873C127.941 17.8438 132.652 18.4863 137.506 18.4863V32.9043H129.583V58.5273H105.315V32.9043H102.817V14.918H105.815C107.6 5.13982 113.88 0.000145099 125.229 0ZM165.796 12.8477C162.299 14.9889 152.591 16.5596 147.238 16.5596V18.5576C152.591 18.5576 161.942 17.3447 165.796 14.918V58.5273H141.528V2.71289H165.796V12.8477ZM33.5693 2.71289C40.7781 2.71296 47.1309 6.78171 47.1309 16.2744C47.1307 23.126 44.1327 27.2658 39.9932 29.6211C44.561 31.6197 47.916 36.973 47.916 44.1104C47.9158 53.1744 41.4206 58.4558 34.0693 58.4561H5.77539V54.9951C6.57142 55.1758 7.39931 55.2754 8.25 55.2754C14.4008 55.2752 19.3876 50.2886 19.3877 44.1377C19.3877 37.9868 14.4009 33.0002 8.25 33C7.39937 33 6.57136 33.0987 5.77539 33.2793V29.4199C6.57143 29.6006 7.3993 29.7002 8.25 29.7002C14.4008 29.7 19.3876 24.7134 19.3877 18.5625C19.3875 12.4117 14.4008 7.42502 8.25 7.4248C7.39939 7.4248 6.57135 7.5235 5.77539 7.7041V2.71289H33.5693ZM7.0127 35.4756C10.8856 35.4756 14.0254 38.6154 14.0254 42.4883C14.0252 46.361 10.8854 49.5 7.0127 49.5C3.13995 49.5 0.000237918 46.361 0 42.4883C0 38.6154 3.1398 35.4756 7.0127 35.4756ZM83.5312 33.6182C80.034 35.7593 71.7545 37.329 66.4014 37.3291V39.3281C71.7545 39.328 80.8186 37.9717 84.8154 35.4023L83.5312 33.6182ZM7.0127 13.2002C10.8856 13.2002 14.0254 16.34 14.0254 20.2129C14.0254 24.0858 10.8856 27.2256 7.0127 27.2256C3.13982 27.2256 2.66169e-05 24.0858 0 20.2129C0 16.34 3.1398 13.2002 7.0127 13.2002Z" fill="url(#paint0_linear_2250_8491)"/>
<defs>
<linearGradient id="paint0_linear_2250_8491" x1="-8.25002" y1="1.11788e-07" x2="23.2055" y2="111.127" gradientUnits="userSpaceOnUse">
<stop offset="0.542677" stop-color="#3CD986"/>
<stop offset="1" stop-color="#8FE95B"/>
</linearGradient>
</defs>
</svg>
