<svg viewBox="0 0 192 129" fill="none" xmlns="http://www.w3.org/2000/svg">
<path d="M56 79C69.8071 79 81 90.1929 81 104C81 117.807 69.8071 129 56 129C42.1929 129 31 117.807 31 104C31 90.1929 42.1929 79 56 79ZM136 79C149.807 79 161 90.1929 161 104C161 117.807 149.807 129 136 129C122.193 129 111 117.807 111 104C111 90.1929 122.193 79 136 79ZM142 0C168.944 0 190.91 21.3129 191.96 48H192V111H180.802C180.932 109.684 181 108.35 181 107C181 84.9086 163.091 67 141 67C118.909 67 101 84.9086 101 107C101 108.35 101.068 109.684 101.198 111H90.8018C90.9324 109.684 91 108.35 91 107C91 84.9086 73.0914 67 51 67C28.9086 67 11 84.9086 11 107C11 108.35 11.0676 109.684 11.1982 111H0V48H0.0400391C1.08982 21.3129 23.0556 0 50 0C70.6485 0 88.3715 12.5173 96 30.377C103.629 12.5173 121.352 0 142 0Z" fill="url(#paint0_linear_2250_8493)"/>
<defs>
<linearGradient id="paint0_linear_2250_8493" x1="0" y1="0" x2="119.431" y2="177.757" gradientUnits="userSpaceOnUse">
<stop offset="0.542677" stop-color="#3CD986"/>
<stop offset="1" stop-color="#8FE95B"/>
</linearGradient>
</defs>
</svg>
